HIERARCHY
ROOT Hips
{
	OFFSET 0.000000 0.000000 0.000000
	CHANNELS 6 Xposition Yposition Zposition Xrotation Yrotation Zrotation
	JOINT LeftUpLeg_virtual
	{
		OFFSET 0.000000 0.000000 0.000000
		CHANNELS 3 Xrotation Yrotation Zrotation
		JOINT LeftUpLeg
		{
			OFFSET 15.427100 -6.655098 0.678600
			CHANNELS 3 Xrotation Yrotation Zrotation
			JOINT LeftLeg
			{
				OFFSET 4.081073 -39.591068 13.024000
				CHANNELS 3 Xrotation Yrotation Zrotation
				JOINT LeftFoot
				{
					OFFSET -4.081074 -37.707932 -15.979700
					CHANNELS 3 Xrotation Yrotation Zrotation
					JOINT LeftToeBase
					{
						OFFSET 5.346399 -15.068900 20.645000
						CHANNELS 3 Xrotation Yrotation Zrotation
						JOINT LeftToe_End
						{
							OFFSET 2.754700 0.931300 11.300900
							CHANNELS 3 Xrotation Yrotation Zrotation
							End Site
							{
								OFFSET 0 0 0
							}
						}
					}
				}
			}
		}
	}
	JOINT RightUpLeg_virtual
	{
		OFFSET 0.000000 0.000000 0.000000
		CHANNELS 3 Xrotation Yrotation Zrotation
		JOINT RightUpLeg
		{
			OFFSET -15.569500 -6.655098 0.678600
			CHANNELS 3 Xrotation Yrotation Zrotation
			JOINT RightLeg
			{
				OFFSET -4.081825 -39.591045 13.023800
				CHANNELS 3 Xrotation Yrotation Zrotation
				JOINT RightFoot
				{
					OFFSET 4.081824 -37.707954 -15.979600
					CHANNELS 3 Xrotation Yrotation Zrotation
					JOINT RightToeBase
					{
						OFFSET -5.346400 -15.068900 20.645000
						CHANNELS 3 Xrotation Yrotation Zrotation
						JOINT RightToe_End
						{
							OFFSET -2.754700 0.931300 11.300900
							CHANNELS 3 Xrotation Yrotation Zrotation
							End Site
							{
								OFFSET 0 0 0
							}
						}
					}
				}
			}
		}
	}
	JOINT Spine_virtual
	{
		OFFSET 0.000000 0.000000 0.000000
		CHANNELS 3 Xrotation Yrotation Zrotation
		JOINT Spine
		{
			OFFSET -0.279200 12.230698 -2.892100
			CHANNELS 3 Xrotation Yrotation Zrotation
			JOINT Spine1
			{
				OFFSET -0.232667 10.192268 -1.242267
				CHANNELS 3 Xrotation Yrotation Zrotation
				JOINT Spine1_split
				{
					OFFSET -0.232667 10.192268 -1.242267
					CHANNELS 3 Xrotation Yrotation Zrotation
					JOINT Spine2
					{
						OFFSET -0.232667 10.192268 -1.242267
						CHANNELS 3 Xrotation Yrotation Zrotation
						JOINT Neck_virtual
						{
							OFFSET 0.000000 0.000000 0.000000
							CHANNELS 3 Xrotation Yrotation Zrotation
							JOINT Neck
							{
								OFFSET -0.418800 17.814194 8.416900
								CHANNELS 3 Xrotation Yrotation Zrotation
								JOINT Head
								{
									OFFSET 0.000000 7.031097 3.806800
									CHANNELS 3 Xrotation Yrotation Zrotation
									JOINT HeadTop_End
									{
										OFFSET 0.000000 24.646606 12.978600
										CHANNELS 3 Xrotation Yrotation Zrotation
										End Site
										{
											OFFSET 0 0 0
										}
									}
								}
							}
						}
						JOINT LeftShoulder_virtual
						{
							OFFSET 0.000000 0.000000 0.000000
							CHANNELS 3 Xrotation Yrotation Zrotation
							JOINT LeftShoulder
							{
								OFFSET 8.476499 7.247704 -3.868750
								CHANNELS 3 Xrotation Yrotation Zrotation
								JOINT LeftShoulder_split
								{
									OFFSET 8.476499 7.247704 -3.868750
									CHANNELS 3 Xrotation Yrotation Zrotation
									JOINT LeftArm
									{
										OFFSET 9.308998 -2.777710 0.208600
										CHANNELS 3 Xrotation Yrotation Zrotation
										JOINT LeftForeArm
										{
											OFFSET 29.972298 0.000000 0.000000
											CHANNELS 3 Xrotation Yrotation Zrotation
											JOINT LeftHand
											{
												OFFSET 26.026505 0.000000 0.000000
												CHANNELS 3 Xrotation Yrotation Zrotation
												End Site
												{
													OFFSET 0 0 0
												}
											}
										}
									}
								}
							}
						}
						JOINT RightShoulder_virtual
						{
							OFFSET 0.000000 0.000000 0.000000
							CHANNELS 3 Xrotation Yrotation Zrotation
							JOINT RightShoulder
							{
								OFFSET -7.570500 7.247704 -3.868750
								CHANNELS 3 Xrotation Yrotation Zrotation
								JOINT RightShoulder_split
								{
									OFFSET -7.570500 7.247704 -3.868750
									CHANNELS 3 Xrotation Yrotation Zrotation
									JOINT RightArm
									{
										OFFSET -9.308998 -2.777710 0.208500
										CHANNELS 3 Xrotation Yrotation Zrotation
										JOINT RightForeArm
										{
											OFFSET -29.972300 0.000000 0.000000
											CHANNELS 3 Xrotation Yrotation Zrotation
											JOINT RightHand
											{
												OFFSET -26.026505 0.000000 0.000000
												CHANNELS 3 Xrotation Yrotation Zrotation
												End Site
												{
													OFFSET 0 0 0
												}
											}
										}
									}
								}
							}
						}
					}
				}
			}
		}
	}
}
MOTION
Frames: 10
Frame Time: 0.03333333
0.665942 80.308823 1.303158 0.000000 0.000000 0.000000 7.847534 -57.720890 9.340645 -31.906071 8.048530 29.403008 34.337458 -5.399539 -8.679152 -6.487691 -4.553647 -12.068141 2.503528 0.183831 -0.881022 0.000000 0.000000 0.000000 8.378399 -58.965925 10.092272 -28.357530 -7.297232 -33.177056 41.341434 3.798848 -5.018597 -15.932857 -0.521299 20.598635 4.995589 0.705439 0.180163 0.000000 0.000000 0.000000 10.081796 -54.386238 10.546539 9.279878 -1.942204 -1.534854 8.512570 0.572590 -5.859277 -0.528351 -4.499144 0.976565 0.000000 0.000000 0.000000 8.430159 0.947673 -4.704198 -15.333657 26.824794 6.159599 -3.565789 35.578169 -6.558323 0.000000 0.000000 0.000000 8.497577 1.059991 -5.522876 -5.849909 -10.279678 -1.591637 -5.897794 1.020770 -4.239677 -19.154017 -1.113706 -33.304115 3.229387 -34.988197 8.196114 0.000000 0.000000 0.000000 8.942476 1.113536 -5.340338 -2.740596 11.709340 -4.011652 1.842458 -4.144337 8.617804 -44.111657 -20.494408 33.577118 -152.836534 66.981056 150.853074 0.000000 0.000000 0.000000 
0.963410 80.185730 0.762718 0.000000 0.000000 0.000000 8.217828 -57.730296 9.901315 -31.550140 8.106987 28.662377 33.969485 -4.425802 -8.962727 -7.113131 -4.197422 -11.320544 2.577437 0.167746 -1.221596 0.000000 0.000000 0.000000 8.769731 -59.343620 10.730590 -28.563617 -7.376655 -33.619636 41.354681 4.062361 -4.926238 -15.854426 -0.459008 20.156177 4.439325 0.521140 0.477869 0.000000 0.000000 0.000000 10.419579 -54.279636 10.986279 9.221594 -1.724322 -1.476042 8.387083 0.567940 -5.841917 -0.470136 -4.200643 1.388712 0.000000 0.000000 0.000000 8.499688 0.897482 -4.605810 -15.249350 27.333621 6.205178 -2.967872 35.097436 -6.549629 0.000000 0.000000 0.000000 8.565902 1.027654 -5.460395 -5.822582 -10.373525 -1.876447 -6.841208 0.625439 -4.872901 -18.721600 -1.051595 -33.998281 3.169745 -36.406575 7.868128 0.000000 0.000000 0.000000 8.822313 1.023364 -5.117704 -2.116462 12.391351 -3.664376 1.327801 -4.382839 6.921454 -44.100797 -22.870904 32.787978 -150.346411 68.356171 148.430174 0.000000 0.000000 0.000000 
1.278535 80.098412 0.134705 0.000000 0.000000 0.000000 8.386129 -58.298561 10.574373 -30.986366 8.792985 28.048985 33.588575 -3.349059 -9.372623 -7.701985 -4.049501 -11.426466 2.658951 0.115612 -1.305127 0.000000 0.000000 0.000000 8.768914 -60.087578 11.362442 -28.873003 -7.704014 -34.465449 41.275991 4.941416 -4.530225 -15.800929 -0.306116 19.984618 4.227071 0.373637 0.558065 0.000000 0.000000 0.000000 10.133768 -54.532876 11.171191 9.457859 -1.360941 -1.461132 8.486107 0.640427 -5.755302 -0.158645 -3.478024 1.438294 0.000000 0.000000 0.000000 8.627013 0.989097 -4.533202 -16.034108 27.598062 7.217599 -1.834682 34.513386 -6.753551 0.000000 0.000000 0.000000 8.730082 1.053374 -5.337963 -5.832476 -10.800301 -2.239124 -7.467227 -0.337208 -5.348306 -18.900286 1.248199 -35.071341 3.486997 -38.374779 6.862423 0.000000 0.000000 0.000000 8.759057 1.017243 -4.849100 -1.230824 12.864870 -3.023652 0.330563 -3.680973 5.393855 -44.694869 -24.427120 30.274667 -142.640018 69.597975 141.308185 0.000000 0.000000 0.000000 
1.521326 80.137794 -0.204849 0.000000 0.000000 0.000000 8.449437 -59.564297 11.418120 -30.361946 10.062560 27.594555 33.454939 -2.255858 -9.828342 -8.245024 -4.050172 -12.384333 2.973568 0.048601 -1.117409 0.000000 0.000000 0.000000 8.543738 -61.355548 12.018526 -29.260650 -8.108387 -35.660872 41.111732 6.318863 -3.797998 -15.588490 0.067970 20.204323 4.114593 0.274886 0.420931 0.000000 0.000000 0.000000 9.445786 -55.430229 11.273366 9.941666 -0.889034 -1.474400 8.789516 0.801282 -5.560125 0.141471 -2.713075 1.240978 0.000000 0.000000 0.000000 8.812751 1.207589 -4.427758 -17.326879 27.582787 8.747193 -0.105384 34.007727 -7.318703 0.000000 0.000000 0.000000 8.970732 1.159906 -5.113268 -5.916954 -11.563084 -2.875174 -7.963753 -1.520515 -5.463460 -19.063748 5.266015 -36.135881 4.191717 -40.575466 5.364425 0.000000 0.000000 0.000000 8.833718 1.106825 -4.548168 -0.150959 13.270346 -2.261227 -0.888562 -2.752589 4.162260 -45.540983 -24.540012 26.130653 -130.351947 69.918413 130.059246 0.000000 0.000000 0.000000 
1.641355 80.238602 -0.130089 0.000000 0.000000 0.000000 8.565506 -61.794060 12.535287 -29.773843 11.694122 27.218138 33.790145 -1.083660 -10.243094 -8.903117 -3.963373 -13.799572 3.603172 0.003409 -0.772744 0.000000 0.000000 0.000000 8.166065 -63.377510 12.731420 -29.809937 -8.282816 -36.988346 40.691900 8.044797 -2.815899 -15.196391 0.694959 20.721474 3.520805 0.231721 0.140858 0.000000 0.000000 0.000000 8.404702 -57.193965 11.390093 10.547107 -0.344935 -1.455301 9.249493 1.045131 -5.167310 0.430410 -2.042217 1.034094 0.000000 0.000000 0.000000 9.082959 1.513653 -4.196791 -18.504987 27.402258 10.348576 2.226243 33.799656 -8.467742 0.000000 0.000000 0.000000 9.356725 1.338994 -4.690362 -6.126137 -12.660707 -3.904280 -8.158253 -2.253002 -5.513368 -18.767188 9.877981 -36.807869 5.541561 -43.054145 3.746183 0.000000 0.000000 0.000000 9.096595 1.271147 -4.156379 1.013692 13.700692 -1.674192 -1.852324 -2.367977 3.026383 -46.008738 -22.676554 20.689796 -115.497133 68.808610 116.544597 0.000000 0.000000 0.000000 
1.603732 80.398628 0.466793 0.000000 0.000000 0.000000 8.902008 -64.928892 13.986042 -29.199889 13.404922 26.824921 34.675976 0.257587 -10.567820 -10.004889 -3.584598 -15.122259 4.201642 0.012266 -0.375988 0.000000 0.000000 0.000000 7.984115 -66.072620 13.677501 -30.521820 -7.928526 -38.190893 39.938203 9.900141 -1.764934 -14.884439 1.485889 21.246792 2.325482 0.232531 -0.113698 0.000000 0.000000 0.000000 7.113611 -59.928332 11.591916 11.104358 0.223353 -1.327916 9.823224 1.338038 -4.525651 0.534830 -1.438080 0.971825 0.000000 0.000000 0.000000 9.423036 1.853593 -3.760949 -19.000230 27.327934 11.583643 5.059711 33.954059 -10.335143 0.000000 0.000000 0.000000 9.894356 1.574378 -4.024076 -6.492422 -14.035742 -5.357978 -7.826104 -2.603217 -5.423158 -17.519796 14.006964 -36.802473 8.015237 -45.975226 2.730084 0.000000 0.000000 0.000000 9.562877 1.463533 -3.634018 2.254336 14.342156 -1.550678 -2.773708 -3.111806 2.168003 -45.137148 -18.910038 14.515537 -99.255817 66.302736 101.826086 0.000000 0.000000 0.000000 
1.513440 80.545280 1.405716 0.000000 0.000000 0.000000 9.793622 -68.772622 16.014787 -28.730279 14.841839 26.365599 36.274377 1.750976 -10.807479 -11.541961 -2.870672 -15.847205 4.465702 0.076435 -0.026457 0.000000 0.000000 0.000000 8.336131 -69.242942 15.075846 -31.269473 -6.823175 -39.036765 39.282214 11.687104 -0.769316 -14.750721 2.305859 21.276922 1.183483 0.261567 -0.198374 0.000000 0.000000 0.000000 5.902871 -63.400206 12.074655 11.462954 0.765710 -1.012513 10.439810 1.603779 -3.618252 0.455315 -0.974142 1.019049 0.000000 0.000000 0.000000 9.828722 2.129466 -3.066967 -18.532212 27.484620 12.310475 8.087978 34.439241 -12.912304 0.000000 0.000000 0.000000 10.544621 1.787332 -3.125593 -6.931028 -15.675200 -7.021338 -6.563036 -2.505066 -5.028331 -15.348943 17.087062 -36.018576 12.384552 -49.108285 3.254566 0.000000 0.000000 0.000000 10.195043 1.622792 -2.904456 3.553397 15.193425 -2.227428 -3.197790 -4.632993 1.734648 -42.634464 -13.643486 8.436394 -83.304846 62.318919 87.293656 0.000000 0.000000 0.000000 
1.341171 80.527519 2.433804 0.000000 0.000000 0.000000 11.513751 -72.857348 18.846563 -28.544211 15.790781 25.866575 38.675649 3.301138 -11.046870 -13.402140 -2.001532 -15.546043 4.234704 0.161991 0.207107 0.000000 0.000000 0.000000 9.578849 -72.568574 17.252858 -32.057138 -4.959988 -39.439206 39.041959 13.268264 0.006226 -14.647117 2.996702 20.771251 0.471323 0.307325 -0.027927 0.000000 0.000000 0.000000 5.086736 -67.240351 12.933960 11.581411 1.219211 -0.470097 11.050822 1.744384 -2.486612 0.377442 -0.961292 1.074895 0.000000 0.000000 0.000000 10.307733 2.229329 -2.088561 -17.041199 27.966317 12.550297 11.166589 35.293647 -16.154350 0.000000 0.000000 0.000000 11.247676 1.860277 -2.061809 -7.391051 -17.441412 -8.443412 -4.345237 -1.830103 -4.195878 -12.499039 19.127074 -34.466231 19.673615 -52.354486 6.530327 0.000000 0.000000 0.000000 10.920229 1.672989 -1.957764 4.923474 16.145999 -3.864378 -3.450560 -5.988096 1.695359 -39.302442 -7.663244 3.229023 -69.604709 56.871290 74.790421 0.000000 0.000000 0.000000 
1.153844 80.269196 3.449432 0.000000 0.000000 0.000000 14.476244 -76.412851 22.755366 -28.854786 16.137119 25.436190 41.694193 4.660086 -11.355871 -15.263374 -1.254339 -14.357008 3.607991 0.239079 0.305415 0.000000 0.000000 0.000000 12.333772 -75.614306 20.699629 -32.898549 -2.563132 -39.373131 39.378277 14.589178 0.342864 -14.504217 3.445224 20.410579 -0.312310 0.320106 0.304413 0.000000 0.000000 0.000000 5.300400 -70.995186 14.521554 11.510823 1.510509 0.289203 11.588368 1.616188 -1.247920 0.097793 -1.296174 1.282387 0.000000 0.000000 0.000000 10.811799 2.067716 -0.908233 -14.804549 28.726423 12.582949 14.157613 36.501497 -19.743628 0.000000 0.000000 0.000000 11.907003 1.682903 -0.938008 -7.711985 -19.133696 -9.185029 -2.169530 -0.756676 -3.521441 -9.488120 20.503864 -32.091576 30.715562 -55.058124 13.611936 0.000000 0.000000 0.000000 11.591510 1.483272 -0.850779 6.364492 16.922171 -6.421982 -3.864796 -6.628812 2.202748 -36.368059 -1.702276 -0.416611 -59.209537 50.609960 65.189094 0.000000 0.000000 0.000000 
1.044099 79.782013 4.385223 0.000000 0.000000 0.000000 19.316069 -79.099355 28.276295 -29.930674 15.856262 25.199879 45.162929 5.513346 -11.783366 -16.582335 -0.727477 -12.831473 2.769365 0.323333 0.256130 0.000000 0.000000 0.000000 16.947361 -77.992714 25.751232 -33.629516 -0.034264 -38.921949 40.171498 15.675038 0.178923 -14.333668 3.635558 20.828857 -1.457584 0.287947 0.616641 0.000000 0.000000 0.000000 6.741317 -74.145631 16.972371 11.332264 1.580296 1.175761 11.965412 1.118512 -0.060411 -0.194206 -1.772923 1.468550 0.000000 0.000000 0.000000 11.284630 1.575893 0.303330 -12.219967 29.581344 12.746244 16.769706 37.973898 -23.403483 0.000000 0.000000 0.000000 12.450514 1.195301 0.140691 -7.714338 -20.539822 -8.868985 0.021655 0.499686 -3.082062 -6.668711 21.444378 -29.010214 45.647575 -56.463179 24.717333 0.000000 0.000000 0.000000 12.110512 0.962559 0.301473 7.741768 17.042961 -9.636241 -4.289572 -6.379018 3.058126 -35.233258 3.784785 -1.986123 -52.221734 44.733566 58.599847 0.000000 0.000000 0.000000 
